<svg width="139" height="40" viewBox="0 0 139 40" fill="none" xmlns="http://www.w3.org/2000/svg">
<g clip-path="url(#clip0_15_2)">
<path d="M8.50943 22.7097V40H3.22327V25.8064L0 28.2581V22.1935L20.5 8.38708L30.5 15V18V21L20.5 14.4516L8.50943 22.7097Z" fill="url(#paint0_linear_15_2)"/>
<path d="M37.5 26L32 22V13.6774L20.5 6.06452L8.5094 13.9355V8L20.5 0L41 13.6774V19.871L37.5 17.5V26Z" fill="url(#paint1_linear_15_2)"/>
<path d="M13.076 39.832V28.136H19.2223C20.0394 28.136 20.704 28.2493 21.2162 28.476C21.7406 28.6913 22.1248 29.02 22.3687 29.462C22.6248 29.8927 22.7528 30.431 22.7528 31.077C22.7528 31.6097 22.6735 32.063 22.515 32.437C22.3565 32.811 22.1187 33.1113 21.8016 33.338C21.4845 33.5647 21.076 33.729 20.576 33.831V33.899C21.137 34.001 21.5821 34.171 21.9113 34.409C22.2528 34.6357 22.4967 34.9417 22.643 35.327C22.7894 35.701 22.8626 36.1713 22.8626 36.738C22.8626 37.2027 22.8016 37.6277 22.6796 38.013C22.5577 38.387 22.3565 38.71 22.076 38.982C21.8077 39.254 21.4418 39.4637 20.9784 39.611C20.515 39.7583 19.9357 39.832 19.2406 39.832H13.076ZM15.6736 37.894H18.3809C18.8687 37.894 19.2528 37.8543 19.5333 37.775C19.8138 37.6843 20.0028 37.5313 20.1004 37.316C20.2101 37.0893 20.265 36.7777 20.265 36.381C20.265 35.9957 20.2101 35.6953 20.1004 35.48C19.9906 35.2533 19.7955 35.0947 19.515 35.004C19.2467 34.9133 18.8687 34.868 18.3809 34.868H15.6736V37.894ZM15.6736 32.964H18.2894C18.7528 32.964 19.1187 32.9187 19.387 32.828C19.6675 32.7373 19.8626 32.59 19.9723 32.386C20.0943 32.1707 20.1553 31.893 20.1553 31.553C20.1553 31.1563 20.1004 30.856 19.9906 30.652C19.8931 30.4367 19.7101 30.2893 19.4419 30.21C19.1858 30.1307 18.8016 30.091 18.2894 30.091H15.6736V32.964ZM24.1944 39.832L28.4565 28.136H31.9321L36.1943 39.832H33.5418L32.6089 37.248H27.6882L26.7919 39.832H24.1944ZM28.3468 35.293H31.9321L30.1943 30.329H30.0846L28.3468 35.293ZM37.9603 39.832V28.136H43.9786C44.7956 28.136 45.448 28.221 45.9359 28.391C46.4358 28.561 46.8139 28.8103 47.07 29.139C47.3261 29.4563 47.4968 29.8473 47.5822 30.312C47.6797 30.7653 47.7286 31.2753 47.7286 31.842C47.7286 32.2387 47.692 32.6637 47.6188 33.117C47.5456 33.5703 47.381 33.9897 47.1249 34.375C46.881 34.7603 46.4907 35.0437 45.9542 35.225L47.9664 39.832H45.2225L43.3201 35.14L43.9603 35.463C43.8749 35.497 43.7712 35.5197 43.6493 35.531C43.5396 35.5423 43.4115 35.548 43.2652 35.548H40.5579V39.832H37.9603ZM40.5579 33.593H42.9359C43.4481 33.593 43.8505 33.5647 44.1432 33.508C44.4359 33.4513 44.6554 33.3607 44.8018 33.236C44.9481 33.1 45.0396 32.9243 45.0761 32.709C45.1127 32.4823 45.131 32.1933 45.131 31.842C45.131 31.4907 45.1127 31.2017 45.0761 30.975C45.0396 30.7483 44.9541 30.5727 44.8201 30.448C44.6859 30.3233 44.4664 30.2327 44.1615 30.176C43.8688 30.1193 43.4664 30.091 42.9542 30.091H40.5579V33.593ZM50.3221 39.832V28.136H52.9197V39.832H50.3221ZM58.4378 39.832V30.176H54.7975V28.136H64.6755V30.176H61.0353V39.832H58.4378ZM64.5129 39.832L68.7751 28.136H72.2507L76.5128 39.832H73.8604L72.9275 37.248H68.0068L67.1105 39.832H64.5129ZM68.6653 35.293H72.2507L70.5129 30.329H70.4031L68.6653 35.293ZM78.2789 39.832V28.136H84.2972C85.1142 28.136 85.7667 28.221 86.2545 28.391C86.7545 28.561 87.1325 28.8103 87.3886 29.139C87.6447 29.4563 87.8155 29.8473 87.9008 30.312C87.9984 30.7653 88.0471 31.2753 88.0471 31.842C88.0471 32.2387 88.0106 32.6637 87.9374 33.117C87.8642 33.5703 87.6996 33.9897 87.4435 34.375C87.1995 34.7603 86.8094 35.0437 86.2728 35.225L88.2849 39.832H85.5411L83.6386 35.14L84.2789 35.463C84.1935 35.497 84.0898 35.5197 83.9679 35.531C83.8582 35.5423 83.7301 35.548 83.5838 35.548H80.8765V39.832H78.2789ZM80.8765 33.593H83.2545C83.7667 33.593 84.1691 33.5647 84.4618 33.508C84.7545 33.4513 84.974 33.3607 85.1203 33.236C85.2667 33.1 85.3581 32.9243 85.3947 32.709C85.4313 32.4823 85.4496 32.1933 85.4496 31.842C85.4496 31.4907 85.4313 31.2017 85.3947 30.975C85.3581 30.7483 85.2728 30.5727 85.1386 30.448C85.0044 30.3233 84.7849 30.2327 84.4801 30.176C84.1874 30.1193 83.785 30.091 83.2728 30.091H80.8765V33.593ZM90.6407 39.832V28.136H93.2382V39.832H90.6407ZM95.9028 39.832V37.605H98.5552V39.832H95.9028ZM106.118 39.968C105.191 39.968 104.417 39.9113 103.795 39.798C103.173 39.6847 102.667 39.492 102.277 39.22C101.886 38.948 101.588 38.5853 101.38 38.132C101.185 37.6787 101.051 37.112 100.978 36.432C100.905 35.752 100.868 34.936 100.868 33.984C100.868 33.032 100.905 32.216 100.978 31.536C101.051 30.856 101.185 30.2893 101.38 29.836C101.588 29.3827 101.886 29.02 102.277 28.748C102.667 28.476 103.173 28.2833 103.795 28.17C104.417 28.0567 105.191 28 106.118 28C106.472 28 106.838 28.0113 107.216 28.034C107.606 28.0567 107.978 28.0907 108.331 28.136C108.685 28.1813 108.984 28.2323 109.228 28.289V30.142C108.898 30.108 108.581 30.0797 108.277 30.057C107.972 30.023 107.685 30.0003 107.417 29.989C107.161 29.9777 106.941 29.972 106.758 29.972C106.136 29.972 105.624 29.9947 105.222 30.04C104.819 30.0853 104.496 30.1817 104.252 30.329C104.02 30.465 103.85 30.6803 103.74 30.975C103.63 31.2583 103.557 31.6437 103.52 32.131C103.484 32.6183 103.466 33.236 103.466 33.984C103.466 34.7207 103.484 35.3383 103.52 35.837C103.557 36.3243 103.63 36.7153 103.74 37.01C103.85 37.2933 104.02 37.5087 104.252 37.656C104.496 37.792 104.819 37.8827 105.222 37.928C105.624 37.9733 106.136 37.996 106.758 37.996C107.161 37.996 107.6 37.979 108.075 37.945C108.551 37.911 108.959 37.8713 109.301 37.826V39.713C109.033 39.7583 108.716 39.798 108.35 39.832C107.984 39.8773 107.606 39.9113 107.216 39.934C106.838 39.9567 106.472 39.968 106.118 39.968ZM116.641 39.968C115.617 39.968 114.77 39.9113 114.099 39.798C113.44 39.6847 112.922 39.4977 112.544 39.237C112.166 38.965 111.892 38.6023 111.721 38.149C111.55 37.6843 111.44 37.112 111.392 36.432C111.343 35.752 111.318 34.936 111.318 33.984C111.318 33.032 111.343 32.216 111.392 31.536C111.44 30.856 111.55 30.2893 111.721 29.836C111.892 29.3713 112.166 29.0087 112.544 28.748C112.922 28.476 113.44 28.2833 114.099 28.17C114.77 28.0567 115.617 28 116.641 28C117.666 28 118.507 28.0567 119.166 28.17C119.837 28.2833 120.361 28.476 120.739 28.748C121.117 29.0087 121.392 29.3713 121.563 29.836C121.746 30.2893 121.861 30.856 121.91 31.536C121.959 32.216 121.983 33.032 121.983 33.984C121.983 34.936 121.959 35.752 121.91 36.432C121.861 37.112 121.746 37.6843 121.563 38.149C121.392 38.6023 121.117 38.965 120.739 39.237C120.361 39.4977 119.837 39.6847 119.166 39.798C118.507 39.9113 117.666 39.968 116.641 39.968ZM116.641 37.996C117.178 37.996 117.611 37.979 117.94 37.945C118.282 37.911 118.55 37.8317 118.745 37.707C118.94 37.5823 119.081 37.3783 119.166 37.095C119.263 36.8117 119.324 36.4207 119.349 35.922C119.373 35.4233 119.385 34.7773 119.385 33.984C119.385 33.1907 119.373 32.5447 119.349 32.046C119.324 31.5473 119.263 31.1563 119.166 30.873C119.081 30.5897 118.94 30.3857 118.745 30.261C118.55 30.1363 118.282 30.057 117.94 30.023C117.611 29.989 117.178 29.972 116.641 29.972C116.117 29.972 115.684 29.989 115.343 30.023C115.013 30.057 114.751 30.1363 114.556 30.261C114.361 30.3857 114.215 30.5897 114.117 30.873C114.032 31.1563 113.977 31.5473 113.952 32.046C113.928 32.5447 113.916 33.1907 113.916 33.984C113.916 34.7773 113.928 35.4233 113.952 35.922C113.977 36.4207 114.032 36.8117 114.117 37.095C114.215 37.3783 114.361 37.5823 114.556 37.707C114.751 37.8317 115.013 37.911 115.343 37.945C115.684 37.979 116.117 37.996 116.641 37.996ZM124.617 39.832V28.136H128.185L131.294 35.854H131.404L134.495 28.136H138.044V39.832H135.538V31.689H135.447L132.191 39.832H130.398L127.142 31.689H127.05V39.832H124.617Z" fill="#009FFF"/>
</g>
<defs>
<linearGradient id="paint0_linear_15_2" x1="15.3428" y1="8.38708" x2="15.3428" y2="40" gradientUnits="userSpaceOnUse">
<stop stop-color="#01B0F5"/>
<stop offset="1" stop-color="#0973B3"/>
</linearGradient>
<linearGradient id="paint1_linear_15_2" x1="24.7547" y1="0" x2="24.7547" y2="40" gradientUnits="userSpaceOnUse">
<stop stop-color="#01B0F5"/>
<stop offset="1" stop-color="#0973B3"/>
</linearGradient>
<clipPath id="clip0_15_2">
<rect width="139" height="40" fill="white"/>
</clipPath>
</defs>
</svg>
